<?xml version="1.0" ?><!DOCTYPE svg  PUBLIC '-//W3C//DTD SVG 1.1//EN'  'http://www.w3.org/Graphics/SVG/1.1/DTD/svg11.dtd'><svg enable-background="new 0 0 24 24" height="24px" id="Layer_1" version="1.1" viewBox="0 0 24 24" width="24px" xml:space="preserve" xmlns="http://www.w3.org/2000/svg" xmlns:xlink="http://www.w3.org/1999/xlink"><g><path d="M17.7,0.9l0,4.3l0.6,11.3c0.7,0,1.6,0,2.3,0l0.6-11.4l0-4.2H17.7z"/><path d="M12,8.8l1.3,0c0,0,0,0,0,0h2l0-2h-2c-0.1,0-0.3-0.1-0.4-0.1s-0.1-0.2-0.1-0.4l0-5.3l-3.4,0l0,5.3c0,0.1-0.1,0.3-0.1,0.4   S9.1,6.8,8.9,6.8l-6.1,0l0,16.1h3.4l0-13.1l-0.9,0C5,9.8,4.8,9.6,4.8,9.3S5,8.8,5.3,8.8l2.2,0c0,0,0,0,0,0l1.4,0   c0.1,0,0.3,0.1,0.4,0.1s0.1,0.2,0.1,0.4l0,10.1c0,0.5,0,1,0.1,1.5c0.2,1.3,0.6,1.8,1.8,2.1c1.1,0.2,2.7,0.2,4.1,0l0-2.1   c-0.3,0-0.6,0-0.6,0c-1.3,0-1.9-0.7-1.9-1.9l0-9.2l-0.8,0c-0.3,0-0.5-0.2-0.5-0.5S11.7,8.8,12,8.8z"/><rect height="3.2" width="3.4" x="17.7" y="19.6"/><path d="M6.2,1c-1,0-2.3,0-3.3,0l0,2.8h3.3L6.2,1z"/></g></svg>